<svg xmlns="http://www.w3.org/2000/svg" xmlns:xlink="http://www.w3.org/1999/xlink" xmlns:serif="http://www.serif.com/" width="100%" height="100%" viewBox="0 0 1505 611" xml:space="preserve" style="fill-rule:evenodd;clip-rule:evenodd;stroke-miterlimit:10;">    <g transform="matrix(1,0,0,1,-485.96373,-309.547248)">        <g transform="matrix(0.615463,0,0,1.232563,0,0)">            <g transform="matrix(1,0,0,1,-3.055966,-278.561376)">                <g transform="matrix(6.769974,0,0,3.38049,587.836094,419.998849)">                    <path d="M229.877,120.526L235.733,105.632L237.323,105.632L243.036,120.526L241.585,120.526L239.872,115.852L233.085,115.852L231.327,120.526L229.877,120.526ZM233.559,114.652L239.393,114.652L236.475,106.833L233.559,114.652Z" style="fill:rgb(143,146,148);fill-rule:nonzero;"></path>                </g>                <g transform="matrix(6.769974,0,0,3.38049,587.836094,419.998849)">                    <path d="M245.607,116.077C245.834,118.747 247.61,119.719 249.89,119.719C252.556,119.719 253.674,118.271 253.674,116.636C253.674,112.023 244.595,115.085 244.595,109.231C244.595,107.163 246.308,105.239 249.64,105.239C252.987,105.239 254.667,107.266 254.649,109.686L253.304,109.686C253.304,107.41 251.544,106.439 249.64,106.439C246.787,106.439 245.753,108.197 245.999,109.729C246.641,113.575 255.08,110.806 255.08,116.574C255.08,119.306 253.075,120.919 249.64,120.919C246.536,120.919 244.238,119.306 244.238,116.077L245.607,116.077Z" style="fill:rgb(143,146,148);fill-rule:nonzero;"></path>                </g>                <g transform="matrix(6.769974,0,0,3.38049,587.836094,420.00223)">                    <path d="M263.943,105.238C268.594,105.238 270.957,108.734 270.957,113.1C270.957,117.381 268.594,120.919 264.001,120.919C259.413,120.919 257.075,117.381 257.075,113.1C257.05,108.754 259.493,105.238 263.943,105.238M269.547,113.1C269.547,108.963 267.414,106.439 263.983,106.439C260.155,106.439 258.477,109.645 258.477,113.1C258.477,116.615 260.137,119.718 264.024,119.718C267.893,119.718 269.547,116.573 269.547,113.1" style="fill:rgb(143,146,148);fill-rule:nonzero;"></path>                </g>                <g transform="matrix(6.769974,0,0,3.38049,587.836094,419.998849)">                    <path d="M284.303,109.955C283.724,107.411 282.151,106.439 279.609,106.439C276.007,106.439 274.458,109.521 274.458,113.037C274.458,116.369 275.681,119.719 279.731,119.719C282.298,119.719 283.894,117.981 284.449,115.622L285.915,115.622C285.254,118.5 283.455,120.919 279.463,120.919C274.874,120.919 273.05,117.3 273.05,113.08C273.05,107.39 276.032,105.239 279.983,105.239C283.039,105.239 285.278,106.873 285.75,109.955L284.303,109.955Z" style="fill:rgb(143,146,148);fill-rule:nonzero;"></path>                </g>                <g transform="matrix(6.769974,0,0,3.38049,587.836094,419.998849)">                    <rect x="289.148" y="105.632" width="1.41" height="14.894" style="fill:rgb(143,146,148);"></rect>                </g>                <g transform="matrix(6.769974,0,0,3.38049,587.836094,419.998849)">                    <path d="M293.028,120.526L298.887,105.632L300.476,105.632L306.187,120.526L304.736,120.526L303.023,115.852L296.239,115.852L294.478,120.526L293.028,120.526ZM296.71,114.652L302.544,114.652L299.628,106.833L296.71,114.652Z" style="fill:rgb(143,146,148);fill-rule:nonzero;"></path>                </g>                <g transform="matrix(6.769974,0,0,3.38049,587.836094,419.998849)">                    <path d="M318.754,109.955C318.176,107.411 316.602,106.439 314.06,106.439C310.46,106.439 308.905,109.521 308.905,113.037C308.905,116.369 310.126,119.719 314.184,119.719C316.748,119.719 318.338,117.981 318.9,115.622L320.368,115.622C319.707,118.5 317.906,120.919 313.914,120.919C309.32,120.919 307.501,117.3 307.501,113.08C307.501,107.39 310.476,105.239 314.428,105.239C317.49,105.239 319.725,106.873 320.204,109.955L318.754,109.955Z" style="fill:rgb(143,146,148);fill-rule:nonzero;"></path>                </g>                <g transform="matrix(6.769974,0,0,3.38049,587.836094,419.998849)">                    <rect x="323.598" y="105.632" width="1.41" height="14.894" style="fill:rgb(143,146,148);"></rect>                </g>                <g transform="matrix(6.769974,0,0,3.38049,587.836094,407.697246)">                    <path d="M335.132,108.878C339.79,108.878 342.146,112.374 342.146,116.74C342.146,121.021 339.79,124.559 335.197,124.559C330.602,124.559 328.264,121.021 328.264,116.74C328.246,112.394 330.686,108.878 335.132,108.878M340.739,116.74C340.739,112.603 338.61,110.079 335.173,110.079C331.35,110.079 329.674,113.285 329.674,116.74C329.674,120.255 331.328,123.358 335.215,123.358C339.084,123.358 340.739,120.213 340.739,116.74M334.039,108.114L336.337,105.238L337.926,105.238L335.091,108.114L334.039,108.114Z" style="fill:rgb(143,146,148);fill-rule:nonzero;"></path>                </g>                <g transform="matrix(6.769974,0,0,3.38049,587.836094,420.00561)">                    <path d="M346.332,107.535L346.285,107.535L346.285,120.525L344.882,120.525L344.882,105.631L346.472,105.631L355.082,118.643L355.122,118.643L355.122,105.631L356.525,105.631L356.525,120.525L354.895,120.525L346.332,107.535Z" style="fill:rgb(143,146,148);fill-rule:nonzero;"></path>                </g>                <g transform="matrix(6.769974,0,0,3.38049,587.836094,419.998849)">                    <path d="M365.585,120.526L365.585,105.632L370.677,105.632C372.331,105.632 373.885,105.735 375.27,106.749C377.235,108.177 377.75,111.073 377.75,113.06C377.75,115.023 377.316,117.216 375.95,118.705C374.587,120.236 372.64,120.526 370.677,120.526L365.585,120.526ZM366.995,119.325L370.367,119.325C371.63,119.325 372.723,119.242 373.863,118.644C375.85,117.63 376.347,115.086 376.347,113.06C376.347,110.886 375.868,108.507 373.78,107.39C372.892,106.913 371.606,106.833 370.367,106.833L366.995,106.833L366.995,119.325Z" style="fill:rgb(143,146,148);fill-rule:nonzero;"></path>                </g>                <g transform="matrix(6.769974,0,0,3.38049,587.836094,419.998849)">                    <path d="M380.508,120.526L380.508,105.632L390.416,105.632L390.416,106.833L381.918,106.833L381.918,112.21L389.591,112.21L389.591,113.41L381.918,113.41L381.918,119.325L390.627,119.325L390.627,120.526L380.508,120.526Z" style="fill:rgb(143,146,148);fill-rule:nonzero;"></path>                </g>                <g transform="matrix(6.769974,0,0,3.38049,587.836094,575.009194)">                    <path d="M230.506,97.6L230.506,82.704L235.946,82.704C239.818,82.704 240.812,84.628 240.812,86.863C240.812,90.192 237.853,91.02 235.099,91.02L231.914,91.02L231.914,97.6L230.506,97.6ZM235.141,89.821C237.772,89.821 239.402,89.281 239.402,86.759C239.402,84.898 238.203,83.904 235.556,83.904L231.914,83.904L231.914,89.821L235.141,89.821Z" style="fill:rgb(143,146,148);fill-rule:nonzero;"></path>                </g>                <g transform="matrix(6.769974,0,0,3.38049,587.836094,575.009194)">                    <path d="M243.926,97.6L243.926,82.704L253.834,82.704L253.834,83.904L245.336,83.904L245.336,89.281L253.011,89.281L253.011,90.482L245.336,90.482L245.336,96.399L254.045,96.399L254.045,97.6L243.926,97.6Z" style="fill:rgb(143,146,148);fill-rule:nonzero;"></path>                </g>                <g transform="matrix(6.769974,0,0,3.38049,587.836094,575.008518)">                    <path d="M258.893,90.835L258.893,97.6L257.483,97.6L257.483,82.703L263.317,82.703C266.59,82.703 268.385,83.863 268.385,86.615C268.385,88.497 267.683,89.49 265.966,90.256C267.724,90.855 267.83,92.717 267.87,94.288C267.935,96.543 268.115,97.166 268.49,97.453L268.49,97.6L266.942,97.6C266.361,96.584 266.503,93.791 266.273,92.656C265.948,91.04 264.725,90.835 263.317,90.835L258.893,90.835ZM263.276,89.634C265.367,89.634 266.982,88.764 266.982,86.676C266.982,84.444 265.247,83.904 263.358,83.904L258.893,83.904L258.893,89.634L263.276,89.634Z" style="fill:rgb(143,146,148);fill-rule:nonzero;"></path>                </g>                <g transform="matrix(6.769974,0,0,3.38049,587.836094,575.009194)">                    <path d="M272.937,93.151C273.16,95.821 274.942,96.793 277.215,96.793C279.888,96.793 281.004,95.345 281.004,93.71C281.004,89.097 271.921,92.159 271.921,86.305C271.921,84.235 273.638,82.313 276.97,82.313C280.319,82.313 281.997,84.338 281.975,86.76L280.63,86.76C280.63,84.484 278.87,83.513 276.97,83.513C274.113,83.513 273.079,85.271 273.329,86.799C273.967,90.649 282.406,87.877 282.406,93.648C282.406,96.38 280.401,97.991 276.97,97.991C273.868,97.991 271.57,96.38 271.57,93.151L272.937,93.151Z" style="fill:rgb(143,146,148);fill-rule:nonzero;"></path>                </g>                <g transform="matrix(6.769974,0,0,3.38049,587.836094,575.009194)">                    <path d="M290.917,82.312C295.575,82.312 297.931,85.807 297.931,90.172C297.931,94.455 295.575,97.991 290.98,97.991C286.387,97.991 284.049,94.455 284.049,90.172C284.031,85.828 286.468,82.312 290.917,82.312M296.521,90.172C296.521,86.035 294.395,83.513 290.958,83.513C287.136,83.513 285.457,86.719 285.457,90.172C285.457,93.687 287.111,96.792 290.998,96.792C294.867,96.792 296.521,93.647 296.521,90.172" style="fill:rgb(143,146,148);fill-rule:nonzero;"></path>                </g>                <g transform="matrix(6.769974,0,0,3.38049,587.836094,575.008518)">                    <path d="M301.293,84.608L301.248,84.608L301.248,97.6L299.845,97.6L299.845,82.704L301.435,82.704L310.045,95.716L310.085,95.716L310.085,82.704L311.489,82.704L311.489,97.6L309.856,97.6L301.293,84.608Z" style="fill:rgb(143,146,148);fill-rule:nonzero;"></path>                </g>                <g transform="matrix(6.769974,0,0,3.38049,587.836094,575.009194)">                    <path d="M313.089,97.6L318.941,82.704L320.538,82.704L326.248,97.6L324.797,97.6L323.08,92.924L316.293,92.924L314.539,97.6L313.089,97.6ZM316.771,91.726L322.605,91.726L319.689,83.904L316.771,91.726Z" style="fill:rgb(143,146,148);fill-rule:nonzero;"></path>                </g>                <g transform="matrix(6.769974,0,0,3.38049,587.836094,575.009194)">                    <path d="M329.62,93.151C329.843,95.821 331.625,96.793 333.898,96.793C336.569,96.793 337.687,95.345 337.687,93.71C337.687,89.097 328.602,92.159 328.602,86.305C328.602,84.235 330.321,82.313 333.653,82.313C337.003,82.313 338.68,84.338 338.656,86.76L337.311,86.76C337.311,84.484 335.553,83.513 333.653,83.513C330.794,83.513 329.76,85.271 330.012,86.799C330.648,90.649 339.089,87.877 339.089,93.648C339.089,96.38 337.084,97.991 333.653,97.991C330.549,97.991 328.251,96.38 328.251,93.151L329.62,93.151Z" style="fill:rgb(143,146,148);fill-rule:nonzero;"></path>                </g>                <g transform="matrix(6.769974,0,0,3.38049,587.836094,575.008518)">                    <path d="M358.656,87.027C358.078,84.485 356.504,83.513 353.962,83.513C350.362,83.513 348.807,86.592 348.807,90.109C348.807,93.441 350.028,96.793 354.086,96.793C356.651,96.793 358.24,95.055 358.802,92.697L360.27,92.697C359.609,95.572 357.808,97.991 353.816,97.991C349.222,97.991 347.403,94.372 347.403,90.152C347.403,84.464 350.378,82.313 354.33,82.313C357.392,82.313 359.627,83.947 360.106,87.027L358.656,87.027Z" style="fill:rgb(143,146,148);fill-rule:nonzero;"></path>                </g>                <g transform="matrix(6.769974,0,0,3.38049,587.836094,575.009194)">                    <path d="M369.952,82.312C374.605,82.312 376.966,85.807 376.966,90.172C376.966,94.455 374.605,97.991 370.011,97.991C365.422,97.991 363.084,94.455 363.084,90.172C363.061,85.828 365.503,82.312 369.952,82.312M375.556,90.172C375.556,86.035 373.423,83.513 369.992,83.513C366.164,83.513 364.486,86.719 364.486,90.172C364.486,93.687 366.146,96.792 370.033,96.792C373.904,96.792 375.556,93.647 375.556,90.172" style="fill:rgb(143,146,148);fill-rule:nonzero;"></path>                </g>                <g transform="matrix(6.769974,0,0,3.38049,587.836094,575.009194)">                    <path d="M389.953,82.704L389.953,95.717L389.913,95.717L381.309,82.704L379.713,82.704L379.713,97.6L381.123,97.6L381.123,84.608L381.163,84.608L389.726,97.6L391.363,97.6L391.363,82.704L389.953,82.704Z" style="fill:rgb(143,146,148);fill-rule:nonzero;"></path>                </g>                <g transform="matrix(6.769974,0,0,3.38049,587.836094,742.30762)">                    <path d="M230.465,57.98L237.023,57.98C242.031,57.98 243.066,62.243 243.066,65.055C243.066,68.243 241.805,72.834 236.9,72.834L230.465,72.834L230.465,57.98ZM233.505,70.271L236.526,70.271C239.05,70.271 239.898,67.721 239.898,65.285C239.898,60.898 237.812,60.545 236.486,60.545L233.505,60.545L233.505,70.271Z" style="fill:rgb(143,146,148);fill-rule:nonzero;"></path>                </g>                <g transform="matrix(6.769974,0,0,3.38049,587.836094,742.301535)">                    <rect x="246.47" y="57.981" width="3.105" height="14.854" style="fill:rgb(143,146,148);"></rect>                </g>                <g transform="matrix(6.769974,0,0,3.38049,587.836094,742.319114)">                    <path d="M255.34,68.257C255.362,69.086 255.779,70.659 258.483,70.659C259.958,70.659 261.588,70.307 261.588,68.736C261.588,67.576 260.47,67.266 258.898,66.895L257.309,66.52C254.906,65.961 252.593,65.425 252.593,62.156C252.593,60.501 253.481,57.585 258.296,57.585C262.85,57.585 264.071,60.562 264.09,62.383L261.113,62.383C261.032,61.722 260.78,60.148 258.073,60.148C256.894,60.148 255.486,60.582 255.486,61.928C255.486,63.086 256.437,63.334 257.057,63.48L260.674,64.37C262.705,64.867 264.569,65.692 264.569,68.361C264.569,72.83 260.016,73.225 258.713,73.225C253.294,73.225 252.363,70.098 252.363,68.257L255.34,68.257Z" style="fill:rgb(143,146,148);fill-rule:nonzero;"></path>                </g>                <g transform="matrix(6.769974,0,0,3.38049,587.836094,742.32317)">                    <path d="M277.048,62.838C276.803,61.948 276.324,60.273 273.757,60.273C272.273,60.273 270.074,61.267 270.074,65.464C270.074,68.133 271.133,70.535 273.757,70.535C275.477,70.535 276.675,69.558 277.048,67.741L280.153,67.741C279.533,70.968 277.422,73.225 273.698,73.225C269.749,73.225 266.913,70.551 266.913,65.423C266.913,60.231 269.91,57.584 273.738,57.584C278.188,57.584 279.989,60.644 280.153,62.838L277.048,62.838Z" style="fill:rgb(143,146,148);fill-rule:nonzero;"></path>                </g>                <g transform="matrix(6.769974,0,0,3.38049,587.836094,742.305592)">                    <path d="M284.435,72.834L281.168,72.834L286.465,57.98L290.042,57.98L295.278,72.834L291.906,72.834L290.952,69.774L285.471,69.774L284.435,72.834ZM286.301,67.209L290.082,67.209L288.241,61.333L288.201,61.333L286.301,67.209Z" style="fill:rgb(143,146,148);fill-rule:nonzero;"></path>                </g>                <g transform="matrix(6.769974,0,0,3.38049,587.836094,742.305592)">                    <path d="M301.013,72.834L297.908,72.834L297.908,57.98L304.695,57.98C307.57,57.98 309.306,59.821 309.306,62.739C309.306,64.084 308.564,67.476 304.571,67.476L301.013,67.476L301.013,72.834ZM303.888,64.911C306.204,64.911 306.204,63.257 306.204,62.595C306.204,61.146 305.396,60.545 303.474,60.545L301.013,60.545L301.013,64.911L303.888,64.911Z" style="fill:rgb(143,146,148);fill-rule:nonzero;"></path>                </g>                <g transform="matrix(6.769974,0,0,3.38049,587.836094,742.305592)">                    <path d="M312.4,72.834L309.131,72.834L314.428,57.98L318.004,57.98L323.236,72.834L319.864,72.834L318.917,69.774L313.434,69.774L312.4,72.834ZM314.259,67.209L318.045,67.209L316.204,61.333L316.163,61.333L314.259,67.209Z" style="fill:rgb(143,146,148);fill-rule:nonzero;"></path>                </g>                <g transform="matrix(6.769974,0,0,3.38049,587.836094,742.32317)">                    <path d="M334.518,62.838C334.273,61.948 333.794,60.273 331.226,60.273C329.743,60.273 327.544,61.267 327.544,65.464C327.544,68.133 328.603,70.535 331.226,70.535C332.947,70.535 334.144,69.558 334.518,67.741L337.623,67.741C337.003,70.968 334.894,73.225 331.168,73.225C327.219,73.225 324.383,70.551 324.383,65.423C324.383,60.231 327.382,57.584 331.211,57.584C335.658,57.584 337.459,60.644 337.623,62.838L334.518,62.838Z" style="fill:rgb(143,146,148);fill-rule:nonzero;"></path>                </g>                <g transform="matrix(6.769974,0,0,3.38049,587.836094,742.301535)">                    <rect x="340.374" y="57.981" width="3.105" height="14.854" style="fill:rgb(143,146,148);"></rect>                </g>                <g transform="matrix(6.769974,0,0,3.38049,587.836094,742.30762)">                    <path d="M347.033,57.98L353.591,57.98C358.595,57.98 359.629,62.243 359.629,65.055C359.629,68.243 358.366,72.834 353.463,72.834L347.033,72.834L347.033,57.98ZM350.073,70.271L353.094,70.271C355.614,70.271 356.467,67.721 356.467,65.285C356.467,60.898 354.373,60.545 353.054,60.545L350.073,60.545L350.073,70.271Z" style="fill:rgb(143,146,148);fill-rule:nonzero;"></path>                </g>                <g transform="matrix(6.769974,0,0,3.38049,587.836094,742.305592)">                    <path d="M364.572,72.834L361.303,72.834L366.6,57.98L370.176,57.98L375.408,72.834L372.036,72.834L371.089,69.774L365.606,69.774L364.572,72.834ZM366.431,67.209L370.217,67.209L368.376,61.333L368.335,61.333L366.431,67.209Z" style="fill:rgb(143,146,148);fill-rule:nonzero;"></path>                </g>                <g transform="matrix(6.769974,0,0,3.38049,587.836094,742.30762)">                    <path d="M378.72,57.98L385.277,57.98C390.282,57.98 391.316,62.243 391.316,65.055C391.316,68.243 390.052,72.834 385.149,72.834L378.72,72.834L378.72,57.98ZM381.76,70.271L384.781,70.271C387.301,70.271 388.153,67.721 388.153,65.285C388.153,60.898 386.06,60.545 384.741,60.545L381.76,60.545L381.76,70.271Z" style="fill:rgb(143,146,148);fill-rule:nonzero;"></path>                </g>                <g transform="matrix(0,3.38049,6.769974,0,1261.003336,98.264931)">                    <path d="M156.326,110.949L264.44,110.949" style="fill:none;fill-rule:nonzero;stroke:rgb(143,146,148);stroke-width:1.94px;"></path>                </g>                <g transform="matrix(6.769974,0,0,3.38049,587.836094,221.253076)">                    <path d="M56.028,117.008C41.911,117.008 30.253,128.463 30.253,142.576C30.253,156.693 41.911,167.942 56.028,167.942C62.127,167.942 67.795,165.777 72.236,162.156L72.236,122.878C67.795,119.213 62.127,117.008 56.028,117.008M55.976,155.705C48.645,155.705 42.588,149.862 42.588,142.528C42.588,135.197 48.645,129.246 55.976,129.246C63.202,129.246 69.258,135.197 69.258,142.528C69.258,149.862 63.202,155.705 55.976,155.705" style="fill:rgb(105,195,198);fill-rule:nonzero;"></path>                </g>                <g transform="matrix(6.769974,0,0,3.38049,587.836094,223.426731)">                    <path d="M77.864,115.749C74.358,115.749 72.235,118.512 72.235,121.808L72.235,122.236C77.918,126.929 81.593,134.012 81.593,141.933C81.593,149.857 77.918,156.88 72.235,161.513L72.235,162.506C72.235,165.79 74.358,168.558 77.864,168.558C81.366,168.558 84.025,165.79 84.025,162.506L84.025,121.808C84.025,118.512 81.366,115.749 77.864,115.749" style="fill:rgb(105,195,198);fill-rule:nonzero;"></path>                </g>                <g transform="matrix(6.769974,0,0,3.38049,587.836094,221.533657)">                    <path d="M72.236,122.795L72.236,162.072C77.919,157.439 81.593,150.417 81.593,142.492C81.593,134.571 77.919,127.488 72.236,122.795" style="fill:rgb(45,183,187);fill-rule:nonzero;"></path>                </g>                <g transform="matrix(6.769974,0,0,3.38049,587.836094,728.478035)">                    <path d="M153.824,75.857C147.113,80.79 138.539,81.635 132.382,80.819C118.486,78.974 108.57,67.031 108.715,53.378C108.725,53.31 108.746,53.328 108.765,53.27C108.95,55.221 109.97,58.231 114.398,58.611L121.991,58.639L122.623,58.639C124.39,63.456 128.634,67.243 134.091,67.962C137.539,68.419 142.802,67.691 145.978,65.37C148.9,63.223 153.008,63.767 155.145,66.69C157.407,69.516 156.737,73.72 153.824,75.857" style="fill:rgb(106,182,79);fill-rule:nonzero;"></path>                </g>                <g transform="matrix(6.769974,0,0,3.38049,587.836094,565.026269)">                    <path d="M158.281,89.23C154.367,82.695 148.046,78.121 140.636,76.703C138.995,76.372 137.471,76.266 135.839,76.266L135.188,76.276C121.282,76.606 110.11,87.669 108.741,101.129C108.71,101.395 108.719,101.405 108.725,101.681C109.317,98.224 112.659,95.697 116.049,96.154C119.739,96.639 122.001,99.116 121.816,103.573C121.943,104.748 122.215,105.894 122.622,106.991L148.395,106.991L155.98,106.962C158.369,106.768 160.078,105.03 160.903,103.068C161.214,102.32 161.495,101.572 161.651,100.854C161.728,100.533 161.777,100.213 161.777,99.912C161.991,96.319 160.029,92.279 158.281,89.23M123.846,95.979C126.458,91.959 130.818,89.444 135.839,89.444C140.743,89.444 144.773,91.852 146.948,95.979L123.846,95.979Z" style="fill:rgb(169,203,83);fill-rule:nonzero;"></path>                </g>                <g transform="matrix(6.769974,0,0,3.38049,587.836094,630.714938)">                    <path d="M122.623,87.559L121.992,87.559L114.398,87.53C109.969,87.151 108.72,84.186 108.706,82.191C108.755,78.713 112.66,76.265 116.048,76.722C119.739,77.207 122.001,79.683 121.817,84.141C121.943,85.316 122.215,86.462 122.623,87.559" style="fill:rgb(22,167,65);fill-rule:nonzero;"></path>                </g>                <g transform="matrix(6.769974,0,0,3.38049,587.836094,583.707195)">                    <path d="M178.092,53.817C174.586,53.817 171.718,56.685 171.718,60.191L171.718,70.838L184.469,70.838L184.469,60.191C184.469,56.685 181.604,53.817 178.092,53.817M184.469,83.591L171.718,83.591L171.718,109.465C171.718,112.759 173.205,116.578 175.331,119.023C177.776,121.786 181.173,123.281 184.682,123.811C185.641,123.914 186.493,123.914 187.439,123.914C190.95,123.914 193.822,121.149 193.822,117.538C193.822,114.033 190.95,111.163 187.439,111.163C187.231,111.163 187.005,111.171 186.777,111.171C186.193,111.171 185.596,111.118 185.211,110.732C184.469,110.098 184.682,108.825 184.469,107.975L184.469,83.591Z" style="fill:rgb(105,195,198);fill-rule:nonzero;"></path>                </g>                <g transform="matrix(6.769974,0,0,3.38049,587.836094,504.935015)">                    <path d="M188.502,94.14L184.469,94.14L184.469,106.893L188.502,106.893C192.015,106.893 194.878,104.024 194.878,100.521C194.878,97.016 192.015,94.14 188.502,94.14M171.718,94.14L167.675,94.14C164.176,94.14 161.299,97.016 161.299,100.521C161.299,104.024 164.176,106.893 167.675,106.893L171.718,106.893L171.718,94.14Z" style="fill:rgb(106,179,197);fill-rule:nonzero;"></path>                </g>                <g transform="matrix(6.769974,0,0,3.38049,587.836094,173.128419)">                    <path d="M178.193,129.446C174.476,129.446 171.503,132.319 171.503,135.928L171.503,163.152C171.503,166.767 174.476,169.74 178.193,169.74C181.699,169.74 184.675,166.767 184.675,163.152L184.675,135.928C184.675,132.319 181.699,129.446 178.193,129.446" style="fill:rgb(153,92,161);fill-rule:nonzero;"></path>                </g>                <g transform="matrix(6.769974,0,0,3.38049,587.836094,-72.031483)">                    <path d="M178.209,178.002C173.894,178.002 170.444,181.313 170.444,185.609L170.444,186.22C170.444,190.269 173.894,193.706 178.209,193.706C182.279,193.706 185.733,190.269 185.733,186.22L185.733,185.609C185.733,181.313 182.279,178.002 178.209,178.002" style="fill:rgb(153,92,161);fill-rule:nonzero;"></path>                </g>                <g transform="matrix(6.769974,0,0,3.38049,587.836094,549.165685)">                    <path d="M59.729,101.03C59.918,95.688 62.081,90.676 65.82,86.918C69.682,90.53 72.034,95.444 72.459,100.712L72.432,100.575C72.412,100.438 72.383,100.303 72.344,100.177C72.296,99.925 72.247,99.769 72.188,99.614C72.111,99.381 72.043,99.207 71.965,99.042C71.897,98.867 71.81,98.702 71.713,98.538C71.639,98.38 71.544,98.224 71.422,98.062C71.325,97.907 71.218,97.761 71.092,97.616C70.986,97.469 70.859,97.324 70.724,97.198C70.607,97.072 70.481,96.955 70.345,96.839C70.229,96.733 70.102,96.625 69.966,96.529C69.879,96.461 69.783,96.393 69.685,96.335C69.4,96.137 69.089,95.964 68.764,95.821C68.647,95.762 68.531,95.713 68.405,95.665C67.684,95.389 66.913,95.248 66.115,95.248C65.496,95.248 64.873,95.339 64.261,95.52C64.078,95.568 63.893,95.636 63.719,95.713C63.505,95.801 63.291,95.898 63.097,96.005C62.953,96.068 62.806,96.153 62.661,96.257C62.515,96.344 62.37,96.451 62.234,96.558C62.079,96.665 61.933,96.791 61.787,96.927C61.69,97.014 61.603,97.101 61.526,97.188C61.446,97.258 61.379,97.332 61.313,97.421C61.176,97.567 61.059,97.712 60.953,97.858C60.837,98.013 60.72,98.178 60.624,98.353C60.48,98.568 60.371,98.803 60.284,99.003C60.216,99.139 60.157,99.274 60.109,99.41C60.051,99.567 59.993,99.721 59.963,99.885C59.905,100.051 59.867,100.216 59.837,100.39C59.779,100.653 59.75,100.837 59.74,101.031L59.729,101.03Z" style="fill:rgb(249,174,32);fill-rule:nonzero;"></path>                </g>                <g transform="matrix(6.769974,0,0,3.38049,587.836094,528.489932)">                    <path d="M101.434,106.622C100.9,103.631 98.288,101.359 95.122,101.359C91.762,101.359 89.024,103.932 88.742,107.205C88.48,102.942 84.906,99.621 80.585,99.621C76.302,99.621 72.787,102.942 72.496,107.176C72.486,107.01 72.447,106.936 72.448,106.81C72.012,101.382 69.553,96.533 65.824,93.036C69.601,89.22 74.836,86.86 80.614,86.86C91.733,86.86 100.783,95.6 101.434,106.622" style="fill:rgb(254,208,100);fill-rule:nonzero;"></path>                </g>                <g transform="matrix(6.769974,0,0,3.38049,587.836094,601.005839)">                    <path d="M72.534,86.326C72.534,86.384 72.527,86.447 72.524,86.52C72.524,86.646 72.513,86.761 72.505,86.887C72.223,90.16 69.465,92.706 66.115,92.706C62.745,92.706 59.985,90.105 59.723,86.813C59.717,86.758 59.696,86.452 59.696,86.306L59.696,86.238C59.696,86.112 59.726,85.763 59.735,85.714C60.026,82.452 62.775,79.907 66.115,79.907C69.465,79.907 72.214,82.461 72.495,85.724C72.514,85.85 72.524,85.966 72.524,86.093C72.534,86.17 72.534,86.248 72.534,86.326" style="fill:rgb(244,148,15);fill-rule:nonzero;"></path>                </g>                <g transform="matrix(6.769974,0,0,3.38049,587.836094,711.637786)">                    <path d="M72.524,53.794L72.524,79.8C72.524,83.256 69.698,86.093 66.231,86.093L66.008,86.093C62.551,86.093 59.716,83.256 59.716,79.8L59.71,53.931C59.952,57.264 62.716,59.979 66.115,59.979C69.591,59.979 72.385,57.229 72.524,53.794" style="fill:rgb(250,185,82);fill-rule:nonzero;"></path>                </g>                <g transform="matrix(6.769974,0,0,3.38049,587.836094,711.637786)">                    <path d="M101.536,53.794L101.536,79.8C101.536,83.256 98.71,86.093 95.243,86.093L95.02,86.093C91.563,86.093 88.728,83.256 88.728,79.8L88.735,54.01C88.959,57.34 91.728,59.979 95.127,59.979C98.603,59.979 101.429,57.232 101.536,53.794" style="fill:rgb(254,208,100);fill-rule:nonzero;"></path>                </g>                <g transform="matrix(6.769974,0,0,3.38049,587.836094,561.185356)">                    <path d="M43.389,98.553C43.165,101.874 40.381,104.486 36.992,104.486C33.594,104.486 30.816,101.854 30.593,98.524C30.583,98.388 30.573,98.242 30.573,98.106C30.573,97.95 30.583,97.795 30.593,97.649C31.03,89.852 35.652,83.19 42.236,79.907C42.974,80.937 43.401,82.18 43.401,83.529L43.401,97.931C43.399,97.994 43.389,98.553 43.389,98.553" style="fill:rgb(245,155,28);fill-rule:nonzero;"></path>                </g>                <g transform="matrix(6.769974,0,0,3.38049,587.836094,711.608037)">                    <path d="M43.393,53.797L43.405,79.805C43.405,83.262 40.579,86.098 37.112,86.098L36.889,86.098C33.432,86.098 30.596,83.262 30.596,79.805L30.594,54.027C30.817,57.358 33.601,59.961 36.999,59.961C40.476,59.961 43.286,57.235 43.393,53.797" style="fill:rgb(250,185,82);fill-rule:nonzero;"></path>                </g>                <g transform="matrix(6.769974,0,0,3.38049,587.836094,531.871774)">                    <path d="M65.824,92.036C62.212,95.668 59.932,100.655 59.737,106.161C59.736,106.223 59.722,106.274 59.719,106.334C59.71,106.46 59.697,106.563 59.697,106.689C59.444,102.495 55.899,99.164 51.549,99.164C47.247,99.164 43.712,102.446 43.402,106.603L43.402,92.201C43.402,90.851 42.975,89.608 42.237,88.579C45.043,87.161 48.199,86.375 51.549,86.375C57.064,86.375 62.086,88.521 65.824,92.036" style="fill:rgb(254,208,100);fill-rule:nonzero;"></path>                </g>                <g transform="matrix(6.769974,0,0,3.38049,587.836094,529.049065)">                    <path d="M42.236,89.414C35.652,92.696 31.029,99.358 30.593,107.156L30.593,93.036C30.593,89.579 33.418,86.743 36.885,86.743L37.109,86.743C39.216,86.743 41.1,87.802 42.236,89.414" style="fill:rgb(250,185,82);fill-rule:nonzero;"></path>                </g>                <g transform="matrix(6.769974,0,0,3.38049,587.836094,601.009219)">                    <path d="M101.541,86.092L101.541,86.52C101.531,86.791 101.502,87.063 101.463,87.325C100.968,90.374 98.326,92.705 95.121,92.705C91.752,92.705 89.005,90.112 88.742,86.82C88.733,86.791 88.713,86.452 88.713,86.306C88.713,86.16 88.722,86.014 88.733,85.868C88.733,85.83 88.742,85.791 88.742,85.752C89.022,82.48 91.762,79.907 95.121,79.907C98.288,79.907 100.9,82.178 101.434,85.17C101.502,85.47 101.531,85.781 101.541,86.092" style="fill:rgb(249,174,32);fill-rule:nonzero;"></path>                </g>                <g transform="matrix(6.769974,0,0,3.38049,587.836094,129.384878)">                    <path d="M122.659,163.119C122.848,157.777 125.011,152.765 128.749,149.006C132.612,152.619 134.964,157.533 135.389,162.801L135.362,162.664C135.342,162.527 135.313,162.392 135.274,162.266C135.226,162.013 135.177,161.858 135.118,161.703C135.041,161.47 134.973,161.296 134.895,161.131C134.827,160.956 134.74,160.791 134.643,160.627C134.569,160.469 134.474,160.313 134.352,160.151C134.255,159.996 134.148,159.85 134.022,159.705C133.916,159.558 133.789,159.413 133.654,159.287C133.537,159.161 133.411,159.044 133.275,158.928C133.159,158.822 133.032,158.714 132.896,158.618C132.809,158.55 132.713,158.482 132.615,158.424C132.33,158.226 132.019,158.053 131.694,157.91C131.577,157.851 131.461,157.802 131.335,157.754C130.614,157.478 129.843,157.337 129.045,157.337C128.426,157.337 127.803,157.428 127.191,157.609C127.008,157.657 126.823,157.725 126.649,157.802C126.435,157.89 126.221,157.987 126.027,158.094C125.883,158.157 125.736,158.242 125.591,158.346C125.445,158.433 125.3,158.54 125.164,158.647C125.009,158.754 124.863,158.88 124.717,159.016C124.62,159.103 124.533,159.19 124.456,159.277C124.376,159.347 124.309,159.421 124.243,159.51C124.106,159.656 123.989,159.801 123.883,159.947C123.767,160.102 123.65,160.267 123.554,160.442C123.409,160.658 123.301,160.892 123.214,161.092C123.146,161.228 123.087,161.363 123.039,161.499C122.98,161.656 122.923,161.81 122.893,161.974C122.835,162.14 122.796,162.305 122.767,162.479C122.709,162.742 122.68,162.926 122.67,163.12L122.659,163.119Z" style="fill:rgb(231,39,134);fill-rule:nonzero;"></path>                </g>                <g transform="matrix(6.769974,0,0,3.38049,587.836094,291.854612)">                    <path d="M135.454,115.883L135.454,141.889C135.454,145.345 132.628,148.182 129.161,148.182L128.938,148.182C125.481,148.182 122.646,145.345 122.646,141.889L122.64,116.02C122.882,119.353 125.646,122.068 129.045,122.068C132.521,122.068 135.315,119.318 135.454,115.883" style="fill:rgb(235,87,140);fill-rule:nonzero;"></path>                </g>                <g transform="matrix(6.769974,0,0,3.38049,587.836094,112.09029)">                    <path d="M128.753,154.125C125.141,157.757 122.861,162.744 122.666,168.25C122.665,168.312 122.651,168.363 122.648,168.423C122.639,168.549 122.626,168.652 122.626,168.778C122.373,164.584 118.828,161.253 114.478,161.253C110.176,161.253 106.641,164.535 106.331,168.692L106.331,154.29C106.331,152.94 105.904,151.697 105.166,150.668C107.972,149.25 111.127,148.464 114.478,148.464C119.993,148.464 125.015,150.61 128.753,154.125" style="fill:rgb(235,87,140);fill-rule:nonzero;"></path>                </g>                <g transform="matrix(6.769974,0,0,3.38049,587.836094,181.224693)">                    <path d="M135.464,148.415C135.464,148.473 135.457,148.536 135.454,148.609C135.454,148.735 135.443,148.85 135.435,148.976C135.153,152.249 132.395,154.795 129.045,154.795C125.675,154.795 122.915,152.194 122.653,148.902C122.647,148.848 122.626,148.541 122.626,148.395L122.626,148.327C122.626,148.201 122.656,147.851 122.665,147.803C122.956,144.541 125.705,141.996 129.045,141.996C132.395,141.996 135.144,144.55 135.425,147.813C135.444,147.939 135.454,148.055 135.454,148.182C135.464,148.259 135.464,148.337 135.464,148.415" style="fill:rgb(231,39,134);fill-rule:nonzero;"></path>                </g>                <g transform="matrix(6.769974,0,0,3.38049,587.836094,220.462041)">                    <path d="M164.363,135.649C163.712,124.627 154.662,115.887 143.543,115.887C137.765,115.887 132.53,118.247 128.753,122.063C132.482,125.56 134.939,130.415 135.376,135.843C135.376,135.969 135.415,136.037 135.425,136.203C135.716,131.969 139.231,128.648 143.514,128.648C147.835,128.648 151.409,131.969 151.671,136.232C151.671,136.271 151.661,136.309 151.661,136.349C151.651,136.494 151.641,136.639 151.641,136.785C151.641,136.902 151.651,137.164 151.661,137.261L151.661,163.005C151.661,166.462 154.497,169.297 157.954,169.297L158.168,169.297C161.634,169.297 164.47,166.462 164.47,163.005L164.47,136.572C164.46,136.261 164.431,135.95 164.363,135.649" style="fill:rgb(235,87,140);fill-rule:nonzero;"></path>                </g>                <g transform="matrix(6.769974,0,0,3.38049,587.836094,141.399139)">                    <path d="M106.319,160.643C106.095,163.964 103.311,166.575 99.922,166.575C96.524,166.575 93.746,163.944 93.523,160.614C93.513,160.478 93.503,160.332 93.503,160.196C93.503,160.04 93.513,159.885 93.523,159.739C93.96,151.942 98.582,145.28 105.166,141.997C105.904,143.027 106.331,144.27 106.331,145.619L106.331,160.021C106.329,160.084 106.319,160.643 106.319,160.643" style="fill:rgb(231,39,134);fill-rule:nonzero;"></path>                </g>                <g transform="matrix(6.769974,0,0,3.38049,587.836094,291.827568)">                    <path d="M106.323,115.886L106.335,141.894C106.335,145.351 103.509,148.187 100.042,148.187L99.819,148.187C96.362,148.187 93.527,145.351 93.527,141.894L93.524,116.116C93.747,119.448 96.531,122.05 99.929,122.05C103.406,122.05 106.216,119.324 106.323,115.886" style="fill:rgb(235,87,140);fill-rule:nonzero;"></path>                </g>                <g transform="matrix(6.769974,0,0,3.38049,587.836094,109.267581)">                    <path d="M105.166,151.503C98.582,154.785 93.959,161.447 93.523,169.245L93.523,155.125C93.523,151.668 96.348,148.832 99.815,148.832L100.039,148.832C102.146,148.832 104.03,149.891 105.166,151.503" style="fill:rgb(235,87,140);fill-rule:nonzero;"></path>                </g>                <g transform="matrix(6.769974,0,0,3.38049,587.836094,504.936367)">                    <rect x="171.718" y="94.14" width="12.751" height="12.753" style="fill:rgb(49,166,185);"></rect>                </g>            </g>        </g>    </g></svg>